 <svg  version="1.0" xmlns="http://www.w3.org/2000/svg"  width="300.000000pt" height="301.000000pt" viewBox="0 0 300.000000 301.000000"  preserveAspectRatio="xMidYMid meet">  <g transform="translate(0.000000,301.000000) scale(0.100000,-0.100000)" fill="#e8e8e8" stroke="none"> <path d="M1448 2983 c6 -2 12 -14 12 -26 0 -17 2 -19 9 -8 7 11 12 9 22 -10 6 -13 18 -30 25 -37 8 -7 18 -20 22 -29 5 -9 14 -13 20 -9 14 8 3 46 -14 46 -8 0 -14 3 -14 8 0 16 -60 72 -77 71 -10 0 -13 -3 -5 -6z"/> <path d="M1546 2963 c7 -30 12 -39 18 -32 2 2 6 16 10 32 5 23 3 27 -14 27 -17 0 -19 -4 -14 -27z"/> <path d="M1457 2890 c4 -15 0 -20 -13 -21 -15 0 -14 -2 5 -10 16 -6 28 -6 35 1 7 7 6 10 -2 10 -7 0 -12 9 -12 20 0 11 -4 20 -9 20 -5 0 -7 -9 -4 -20z"/> <path d="M1495 2780 c-4 -27 -10 -52 -15 -55 -4 -3 -11 -25 -14 -50 -7 -43 -9 -45 -41 -45 -19 0 -55 -6 -81 -12 -43 -12 -45 -14 -40 -43 6 -30 5 -31 -55 -49 -65 -19 -78 -15 -79 27 0 21 5 20 -56 2 -64 -19 -213 -102 -282 -157 -101 -81 -229 -219 -263 -283 -12 -22 -36 -65 -55 -96 -19 -31 -34 -63 -34 -71 0 -7 -9 -31 -19 -51 -11 -21 -22 -61 -25 -90 -3 -29 -3 -43 0 -32 3 11 10 24 15 30 5 5 9 21 9 36 0 31 21 43 44 26 15 -11 15 -17 -1 -70 -17 -55 -20 -58 -46 -54 -24 3 -30 -1 -43 -31 -7 -19 -14 -56 -14 -82 0 -40 -3 -49 -21 -53 -18 -5 -20 -2 -16 21 3 15 8 43 11 62 3 19 11 65 18 103 6 37 9 69 6 72 -2 3 -19 8 -38 11 -25 6 -32 4 -28 -7 2 -8 17 -15 31 -17 25 -3 40 -32 17 -32 -5 0 -10 -11 -10 -24 0 -19 -4 -22 -25 -18 -18 3 -25 0 -25 -12 0 -9 8 -16 21 -16 17 0 20 -5 17 -37 -3 -33 -6 -38 -27 -38 -14 0 -26 -6 -29 -13 -2 -7 6 -12 22 -12 21 0 26 -5 26 -24 0 -21 -7 -26 -50 -35 -28 -6 -64 -11 -80 -11 -42 0 -37 -17 8 -24 20 -4 67 -14 105 -24 l67 -16 0 -53 c0 -32 4 -53 11 -53 7 0 10 19 7 53 -3 51 -2 52 22 49 14 -2 25 -5 26 -5 1 -1 4 -28 8 -59 l6 -58 -35 0 c-36 0 -40 -8 -26 -43 6 -17 8 -17 20 -3 7 9 24 16 37 16 22 0 24 4 24 46 0 25 -5 54 -10 64 -6 10 -7 21 -3 23 8 5 101 -14 188 -38 28 -8 75 -18 105 -21 50 -7 54 -6 41 9 -7 10 -26 17 -42 17 -16 0 -29 4 -29 9 0 5 -21 11 -47 14 -27 3 -77 12 -113 20 -36 8 -82 18 -102 21 -21 4 -38 11 -38 17 0 6 4 8 9 4 18 -11 423 -7 434 4 8 8 -61 11 -239 12 -137 0 -271 0 -299 -1 -30 -1 -46 2 -40 8 14 12 87 32 121 32 16 0 37 7 47 15 11 7 26 11 34 8 8 -3 26 0 39 8 21 11 29 11 46 0 13 -8 18 -8 13 -1 -4 7 2 14 14 17 12 3 21 9 21 14 0 10 -76 1 -102 -12 -9 -5 -26 -9 -37 -9 -17 0 -20 5 -16 28 17 112 29 168 35 177 4 6 10 22 14 36 11 50 79 183 123 243 24 33 48 66 53 75 6 11 12 12 22 5 21 -17 48 -24 48 -13 0 5 -12 14 -27 20 -16 6 -23 13 -16 16 6 2 25 -3 42 -12 32 -16 42 -7 16 15 -8 7 -15 9 -15 4 0 -4 -6 -2 -12 4 -19 19 7 32 65 32 33 0 46 4 41 11 -3 6 -19 9 -35 5 -52 -10 -39 11 45 73 129 96 266 159 411 189 69 15 122 21 127 16 3 -2 -4 -41 -14 -87 -11 -45 -23 -98 -27 -117 -6 -30 -11 -35 -31 -32 -14 1 -32 11 -42 22 -20 25 -28 25 -28 1 0 -31 -11 -51 -29 -51 -9 -1 -34 -9 -56 -20 -44 -21 -81 -25 -90 -10 -11 18 -25 11 -25 -13 0 -25 -21 -47 -87 -91 -24 -16 -43 -31 -43 -33 0 -8 61 -63 69 -63 4 0 16 -9 28 -19 36 -34 81 -53 90 -38 19 30 145 96 186 97 15 0 27 5 27 10 0 6 7 10 15 10 18 0 20 17 3 22 -7 3 -8 9 -3 19 5 8 8 26 6 41 -1 14 2 29 8 33 6 3 11 19 11 35 0 16 4 39 9 52 6 13 17 58 26 101 9 42 20 75 24 73 4 -3 5 10 3 29 -2 18 1 36 7 39 14 9 13 16 13 -364 -1 -380 0 -360 -10 -360 -5 0 -19 9 -32 20 -12 11 -40 28 -61 37 -28 13 -39 25 -41 43 -3 41 2 83 12 95 11 13 2 55 -11 55 -5 0 -10 -6 -11 -12 0 -7 -2 -17 -2 -23 -1 -5 -5 -15 -9 -21 -3 -6 -9 -36 -13 -67 -6 -52 -5 -55 17 -62 13 -4 38 -17 54 -30 17 -12 35 -24 40 -26 6 -2 27 -15 48 -28 34 -21 37 -27 37 -68 0 -29 -4 -42 -11 -37 -6 3 -9 15 -6 25 3 12 0 19 -9 19 -10 0 -13 -7 -8 -25 4 -15 2 -25 -5 -25 -6 0 -11 9 -11 20 0 21 -24 27 -49 11 -13 -8 -13 -12 -1 -27 14 -15 15 -15 20 7 5 19 7 21 12 7 4 -9 1 -24 -6 -33 -11 -16 -14 -16 -28 -1 -9 9 -20 16 -24 16 -5 0 -3 -5 4 -12 16 -16 15 -38 0 -34 -7 1 -10 1 -5 -1 4 -3 5 -8 2 -12 -5 -10 -75 10 -75 21 0 4 7 5 15 2 19 -8 19 3 -1 23 -8 9 -13 22 -9 30 3 10 -56 77 -177 199 -101 101 -194 196 -209 211 -14 16 -36 37 -48 48 l-24 20 13 -25 c7 -14 24 -39 37 -56 29 -39 29 -47 -2 -78 -14 -14 -25 -33 -25 -43 0 -13 10 -7 34 22 19 22 36 38 38 35 10 -12 88 -142 88 -146 0 -14 -44 -44 -67 -44 -25 0 -25 1 -9 19 37 41 9 43 -100 10 -17 -5 -36 -9 -43 -9 -7 0 -38 -7 -68 -16 -49 -14 -54 -18 -51 -42 3 -23 -2 -27 -47 -39 -27 -7 -60 -13 -72 -13 -15 0 -23 -6 -23 -16 0 -13 7 -15 31 -10 22 4 29 2 26 -7 -2 -6 -14 -10 -27 -9 l-23 4 23 -29 c12 -15 29 -28 38 -28 10 -1 46 -4 81 -9 46 -6 70 -5 87 5 23 12 27 10 55 -20 33 -37 69 -102 69 -127 0 -8 -16 -34 -35 -57 -28 -32 -35 -49 -35 -82 0 -34 -6 -49 -33 -76 -19 -19 -53 -45 -77 -59 -24 -14 -57 -34 -75 -46 -42 -28 -150 -64 -192 -64 -42 0 -44 -23 -4 -40 23 -9 39 -8 82 4 29 9 65 16 80 16 16 0 62 21 106 49 44 27 111 59 155 71 52 16 88 34 113 57 l37 33 51 -46 c29 -25 62 -50 75 -55 13 -5 126 -8 250 -7 219 3 229 2 279 -20 28 -13 54 -30 57 -38 3 -8 13 -14 23 -14 22 -1 53 -23 53 -39 0 -6 4 -11 9 -11 5 0 38 -27 73 -60 92 -89 185 -160 207 -160 6 0 11 -4 11 -9 0 -17 80 -108 119 -136 41 -28 57 -26 83 10 14 19 -5 26 -24 8 -18 -16 -21 -16 -31 -2 -7 9 -21 19 -32 22 -21 7 -50 54 -60 98 -4 15 -22 43 -41 63 -19 20 -34 38 -34 41 0 3 -8 15 -18 26 -26 27 -99 176 -107 219 -9 42 -41 90 -61 90 -8 0 -14 5 -14 10 0 6 -7 10 -15 10 -22 0 -18 32 5 58 15 15 33 22 60 22 32 0 50 -9 99 -50 34 -28 71 -64 83 -81 13 -17 40 -40 60 -50 63 -32 208 -44 224 -18 3 5 -23 9 -58 9 -108 0 -133 12 -230 110 -133 133 -163 146 -244 109 -103 -46 -304 -3 -495 107 -61 35 -199 123 -209 134 -22 23 -242 130 -268 130 -22 0 -47 16 -35 23 4 3 24 8 44 12 26 5 39 2 48 -9 19 -23 27 -20 45 19 11 23 21 32 31 29 8 -4 15 -12 15 -19 0 -7 15 -32 33 -56 19 -24 32 -48 31 -54 -2 -5 22 -25 54 -44 31 -19 73 -46 92 -61 65 -50 256 -150 311 -164 31 -7 39 6 39 64 0 29 -8 48 -30 73 -26 30 -36 34 -83 36 -51 1 -57 -1 -86 -35 -36 -40 -50 -40 -29 2 15 32 71 64 111 64 46 0 97 -30 123 -71 27 -43 31 -100 9 -122 -13 -13 -13 -16 0 -27 22 -19 51 6 33 28 -10 12 -11 16 0 19 6 3 10 9 6 14 -3 5 5 9 17 9 17 0 20 -4 16 -21 -4 -16 -2 -19 10 -15 14 6 42 -18 43 -36 0 -14 -27 -9 -40 7 -13 16 -30 11 -30 -9 0 -8 19 -15 52 -19 57 -7 78 2 53 23 -8 7 -15 18 -15 25 0 17 -33 45 -53 45 -12 0 -17 9 -17 32 0 25 -3 29 -12 20 -14 -14 -38 -16 -38 -3 0 5 9 11 20 14 11 3 20 11 20 18 0 10 -3 10 -12 1 -7 -7 -19 -12 -27 -12 -11 0 -8 6 9 20 24 18 24 20 8 36 -10 10 -21 14 -25 10 -4 -4 -1 -11 6 -15 7 -5 10 -14 7 -20 -10 -16 -26 -13 -26 5 0 8 -4 12 -10 9 -5 -3 -10 1 -10 9 0 9 4 16 8 16 12 0 82 68 82 80 0 5 5 10 10 10 16 0 111 100 105 110 -8 14 -45 -13 -75 -55 -14 -19 -33 -37 -42 -40 -10 -4 -18 -11 -18 -16 0 -15 -39 -49 -45 -39 -4 6 -10 10 -15 10 -13 0 -40 -30 -40 -43 1 -7 9 -2 20 11 11 13 21 18 25 12 3 -5 -2 -18 -12 -29 -15 -17 -21 -18 -36 -6 -15 11 -16 17 -8 34 13 23 14 42 4 39 -13 -2 -43 13 -43 22 0 5 13 11 29 15 16 3 31 12 34 18 3 7 22 21 43 32 22 11 48 28 59 38 10 10 25 15 31 13 7 -3 20 4 30 15 9 10 23 19 29 19 7 0 18 6 24 14 7 8 25 18 41 21 16 4 32 15 35 26 6 19 25 17 25 -2 0 -6 -4 -7 -10 -4 -5 3 -7 0 -5 -7 6 -14 -37 -58 -55 -58 -6 0 -10 -7 -10 -15 0 -8 4 -15 8 -15 15 0 82 79 83 97 0 10 2 13 5 8 2 -6 39 22 82 62 98 92 110 75 15 -23 -7 -7 -13 -17 -13 -22 0 -6 -5 -12 -12 -14 -8 -3 -6 -6 4 -10 11 -5 21 4 33 33 25 55 38 53 93 -18 45 -59 42 -73 -24 -111 -31 -18 -61 -32 -67 -32 -7 0 -25 16 -40 36 -27 33 -28 37 -13 53 18 20 20 31 7 31 -5 0 -20 -20 -32 -45 -13 -27 -29 -45 -40 -45 -11 0 -19 -11 -23 -32 -3 -18 -19 -45 -34 -61 -22 -23 -23 -27 -7 -21 29 10 46 25 39 35 -3 5 2 9 10 9 9 0 16 8 16 18 0 9 10 30 23 46 l23 28 37 -53 c20 -30 42 -69 48 -86 6 -18 15 -33 20 -33 13 0 11 21 -6 54 -8 15 -13 32 -10 36 12 19 114 68 131 64 13 -3 27 -26 41 -65 23 -62 22 -89 -3 -89 -8 0 -40 -9 -71 -20 -69 -24 -63 -24 -63 -4 0 14 -3 14 -15 4 -12 -10 -21 -10 -38 -2 -22 11 -125 32 -158 32 -11 0 -25 -15 -36 -37 -9 -21 -20 -40 -23 -43 -16 -14 -80 -114 -80 -126 0 -2 215 -3 478 -2 262 0 488 -3 501 -7 26 -8 91 2 91 14 0 5 -31 12 -70 15 -38 4 -70 12 -70 17 0 6 -4 8 -9 5 -5 -3 -30 -2 -56 3 -42 8 -48 7 -52 -10 -6 -22 -20 -24 -59 -8 -21 7 -34 7 -52 -2 -18 -10 -30 -10 -54 -1 -17 6 -35 9 -40 6 -9 -6 -476 -6 -520 0 -16 2 -28 -1 -28 -5 0 -5 -4 -9 -10 -9 -17 0 -11 28 10 43 11 8 17 17 13 20 -3 4 -1 7 5 7 7 0 12 7 12 15 0 8 4 15 8 15 4 0 13 14 19 31 12 30 14 31 50 24 21 -4 61 -11 88 -16 28 -5 59 -11 70 -13 11 -3 37 -7 59 -10 21 -3 44 -10 50 -15 7 -6 32 -12 57 -14 25 -2 50 -6 55 -9 5 -3 27 -9 49 -13 22 -4 44 -10 50 -13 5 -3 16 -7 25 -8 8 -2 33 -6 55 -9 81 -15 79 -16 85 45 4 47 8 55 27 58 19 3 22 -2 25 -34 2 -21 8 -39 14 -41 8 -3 9 9 3 39 -27 149 -38 198 -52 224 -8 16 -18 43 -21 61 -4 17 -23 57 -42 88 -19 32 -34 61 -34 66 0 5 -4 9 -8 9 -5 0 -12 11 -18 24 -9 23 -68 96 -144 176 -19 20 -64 60 -100 89 -36 28 -70 56 -76 61 -7 5 -27 16 -45 24 -19 9 -54 28 -79 42 -49 28 -211 84 -242 84 -11 0 -45 7 -75 16 -33 9 -74 14 -99 11 -41 -4 -44 -3 -44 19 0 13 5 24 12 24 6 0 8 3 5 6 -13 13 -38 -19 -32 -40 7 -22 10 -38 21 -101 4 -22 10 -44 14 -50 4 -5 13 -41 20 -80 7 -38 16 -74 20 -80 4 -5 10 -32 14 -60 3 -27 15 -78 27 -112 18 -56 24 -63 57 -73 45 -15 111 -46 136 -65 19 -14 14 -35 -9 -35 -7 0 -15 -4 -17 -8 -5 -13 -74 -52 -92 -52 -10 0 -16 8 -15 23 1 36 -25 130 -37 134 -8 3 -8 -12 2 -53 7 -31 15 -59 18 -62 3 -3 1 -11 -4 -17 -8 -9 -6 -14 5 -19 25 -9 17 -33 -15 -46 -16 -7 -30 -16 -30 -21 0 -5 -8 -9 -18 -9 -9 0 -29 -11 -44 -25 -15 -14 -32 -25 -38 -25 -5 0 -10 -4 -10 -10 0 -5 -9 -10 -20 -10 -20 0 -20 6 -20 482 1 303 5 477 10 468 5 -8 10 -23 10 -32 0 -10 5 -18 11 -18 8 0 9 11 5 33 -4 17 -9 51 -13 75 -8 56 -20 53 -28 -8z m-39 -176 c-3 -9 -6 -23 -6 -33 0 -14 -9 -17 -47 -17 -44 1 -48 3 -48 26 0 21 6 26 35 30 67 10 72 10 66 -6z m201 2 c25 -6 29 -11 25 -31 -5 -26 -14 -29 -74 -19 -28 5 -37 12 -41 30 -2 13 -3 25 -1 27 5 4 55 0 91 -7z m147 -28 c22 -6 46 -15 52 -20 14 -11 6 -48 -10 -48 -23 0 -160 49 -138 50 13 0 22 6 22 15 0 18 19 19 74 3z m-674 -74 c0 -13 -5 -24 -12 -24 -6 0 -32 -10 -56 -22 -44 -21 -45 -21 -58 -3 -18 24 -18 35 0 35 8 0 16 4 18 8 5 13 81 40 95 35 7 -3 13 -16 13 -29z m595 14 c175 -35 383 -144 507 -266 l48 -46 -27 -28 c-21 -22 -24 -31 -15 -40 9 -9 12 -9 12 3 0 9 8 26 19 37 22 26 21 26 95 -81 94 -136 135 -244 175 -454 9 -49 12 -48 -79 -27 -36 8 -76 17 -90 20 -14 3 -35 7 -47 10 -18 3 -23 11 -23 33 0 16 7 34 15 41 21 17 19 28 -6 32 -23 3 -28 9 -54 73 -9 22 -20 47 -24 55 -5 10 -3 23 5 35 20 27 17 36 -11 31 -21 -4 -32 5 -71 56 -52 69 -59 84 -45 92 6 4 8 13 5 21 -4 8 1 18 10 21 9 3 16 10 16 15 0 13 -27 11 -42 -3 -43 -41 -47 -42 -69 -14 -11 14 -25 26 -32 26 -21 0 -57 44 -57 69 0 19 -3 22 -12 13 -19 -19 -55 -14 -124 18 -54 25 -64 33 -64 54 l0 25 -25 -23 c-17 -16 -33 -22 -50 -18 -32 6 -37 14 -53 87 -7 33 -15 69 -17 80 -3 11 -8 32 -11 47 l-6 28 48 -6 c27 -3 72 -10 99 -16z m272 -14 c46 -20 49 -25 33 -54 -10 -19 -12 -18 -57 5 -25 14 -52 25 -59 25 -17 0 -18 14 -4 41 8 14 16 17 28 11 9 -4 36 -17 59 -28z m-1044 -68 c16 -23 15 -25 -38 -65 l-55 -40 -16 25 c-9 13 -15 26 -13 27 2 2 24 16 49 32 25 17 47 33 48 38 5 11 8 9 25 -17z m1177 -9 c0 -4 16 -15 35 -24 37 -18 42 -38 14 -56 -12 -7 -26 -2 -58 21 -23 17 -47 32 -54 35 -7 2 -4 12 8 29 16 21 23 23 37 14 10 -6 18 -14 18 -19z m-1130 3 c0 -5 -2 -10 -4 -10 -3 0 -8 5 -11 10 -3 6 -1 10 4 10 6 0 11 -4 11 -10z m-160 -115 c0 -5 -5 -3 -10 5 -5 8 -10 20 -10 25 0 6 5 3 10 -5 5 -8 10 -19 10 -25z m-64 -61 c-47 -47 -47 -47 -67 -27 -20 20 -20 20 27 67 48 46 48 46 67 27 20 -19 20 -20 -27 -67z m1508 36 c-3 -8 -2 -11 2 -7 4 4 18 -2 30 -14 19 -18 21 -24 11 -40 -17 -27 -24 -24 -74 27 -41 44 -43 47 -27 65 15 17 18 17 40 1 13 -10 21 -23 18 -32z m-910 -57 c-8 -55 -9 -57 -23 -48 -12 7 -15 78 -4 88 3 4 13 7 20 7 11 0 13 -10 7 -47z m314 38 c11 -7 12 -19 2 -65 -6 -31 -15 -56 -20 -56 -4 0 -11 24 -15 53 -4 28 -12 58 -17 65 -8 9 -4 12 13 12 13 0 30 -4 37 -9z m113 -31 c30 -9 71 -31 80 -44 5 -6 -42 -102 -66 -134 -1 -1 -23 7 -49 19 -26 11 -54 18 -62 15 -17 -7 -17 5 0 69 19 73 34 98 54 90 9 -4 29 -11 43 -15z m-478 -43 c25 -79 23 -94 -15 -102 -18 -4 -43 -13 -56 -21 -28 -18 -36 -11 -77 65 l-30 54 24 16 c33 22 81 39 111 40 22 1 27 -7 43 -52z m-639 -10 c17 -13 16 -15 -13 -47 -17 -19 -34 -43 -37 -52 -6 -21 -25 -23 -42 -6 -18 18 -15 30 18 68 16 19 30 38 30 43 0 11 24 8 44 -6z m1734 -32 c37 -51 39 -66 14 -82 -17 -10 -24 -4 -57 45 -35 52 -36 56 -19 69 25 18 25 18 62 -32z m-1291 13 c6 -7 23 -37 38 -66 l29 -53 -30 -24 c-36 -30 -43 -30 -74 -2 -14 13 -31 22 -38 19 -6 -2 -12 0 -12 6 0 5 -12 14 -26 21 -14 6 -24 15 -22 20 5 14 101 90 114 91 6 0 16 -6 21 -12z m871 -37 c18 -14 32 -28 32 -32 0 -3 -13 -12 -30 -19 -16 -7 -30 -15 -30 -19 0 -4 -12 -12 -27 -18 -16 -7 -35 -18 -44 -24 -13 -10 -21 -8 -38 8 -25 23 -27 14 26 107 7 11 20 26 29 33 18 13 15 15 82 -36z m-1409 -108 c8 -5 -51 -113 -63 -113 -23 0 -38 26 -27 47 46 86 53 94 70 81 9 -7 18 -13 20 -15z m1928 -38 l31 -54 -25 -16 c-13 -9 -26 -15 -27 -13 -8 9 -56 118 -56 125 0 5 10 9 23 11 18 1 30 -10 54 -53z m-1464 -39 c21 -16 22 -26 2 -26 -8 0 -19 9 -25 20 -12 23 -3 25 23 6z m66 -65 c29 -28 37 -41 29 -49 -7 -7 -8 -15 -4 -19 4 -4 11 -1 15 6 7 10 23 -1 65 -42 31 -31 56 -63 56 -71 0 -8 5 -16 12 -18 6 -2 9 -12 5 -21 -5 -14 -16 -9 -74 28 -55 37 -73 55 -93 97 -14 29 -36 63 -49 75 -13 13 -21 29 -17 38 8 21 9 20 55 -24z m1455 -51 c3 -23 12 -50 19 -61 10 -16 9 -21 -3 -29 -33 -21 -46 -11 -62 49 -16 62 -11 81 23 81 12 0 18 -12 23 -40z m-1699 10 c-9 -10 -15 -26 -12 -34 6 -15 62 -46 85 -46 8 0 12 -6 9 -14 -4 -9 0 -12 13 -9 19 5 124 -45 178 -84 17 -13 32 -21 32 -18 0 3 12 -6 28 -20 15 -14 35 -28 45 -31 9 -3 17 -13 17 -22 0 -13 2 -14 9 -3 10 15 38 4 61 -24 11 -13 11 -18 1 -24 -8 -5 5 -10 32 -13 25 -3 58 -15 75 -26 16 -12 32 -18 36 -14 4 3 11 1 15 -6 4 -7 21 -15 37 -18 16 -3 49 -14 74 -26 35 -16 66 -21 142 -22 l98 -1 -6 -31 c-3 -19 -1 -35 5 -39 6 -3 8 -11 5 -17 -4 -7 -2 -8 4 -4 25 15 78 -56 102 -134 12 -41 28 -82 34 -90 29 -39 38 -63 26 -70 -9 -5 -9 -9 -1 -14 6 -4 11 -2 11 3 0 6 5 11 11 11 6 0 9 -5 7 -12 -3 -7 6 -22 19 -34 13 -12 23 -24 23 -27 0 -12 -57 24 -85 53 -16 16 -35 30 -42 30 -8 0 -16 7 -19 15 -4 8 -10 15 -15 15 -6 0 -31 21 -57 46 -26 25 -64 57 -84 71 -21 14 -38 29 -38 33 0 11 -89 44 -130 48 -19 2 -38 7 -42 10 -4 4 -65 4 -135 -1 -234 -13 -281 -8 -332 41 -9 9 -31 26 -47 38 -29 21 -29 21 -64 1 -19 -10 -39 -25 -45 -33 -5 -8 -33 -21 -60 -28 -28 -8 -65 -19 -83 -25 l-34 -10 26 25 c14 14 29 23 35 20 5 -3 7 2 4 12 -2 10 3 24 11 31 10 9 16 30 16 56 0 34 6 49 33 77 25 27 31 41 29 68 -3 40 -29 100 -42 100 -5 0 -11 9 -15 19 -12 39 -52 54 -152 54 -52 0 -96 4 -99 9 -3 4 0 8 6 8 7 0 10 6 7 13 -6 16 73 40 98 31 8 -3 15 -1 15 5 0 7 -7 14 -15 17 -17 7 -20 30 -5 39 6 4 17 2 24 -4 11 -9 18 -8 30 4 9 9 16 21 16 27 0 6 9 8 20 5 11 -3 23 -1 26 4 3 5 15 9 26 9 20 0 20 -1 3 -20z m665 -107 c0 -5 -4 -15 -10 -23 -11 -18 -25 -7 -17 15 6 15 27 21 27 8z m30 -7 c0 -7 -7 -19 -15 -26 -16 -13 -20 -3 -9 24 8 20 24 21 24 2z m720 -64 c0 -10 -6 -12 -17 -7 -20 8 -32 11 -88 21 l-40 7 55 12 c46 10 58 9 73 -3 9 -8 17 -22 17 -30z m-1816 -14 c-8 -51 -3 -44 -34 -51 -25 -6 -26 -5 -23 41 1 26 2 48 2 50 1 1 15 2 31 2 30 0 30 0 24 -42z m1059 -22 c26 -4 67 -47 65 -70 0 -12 1 -27 3 -35 2 -7 -2 -16 -10 -19 -9 -3 -11 0 -6 8 6 10 3 12 -10 6 -22 -8 -80 10 -120 38 -16 12 -32 22 -34 23 -2 1 2 9 9 18 7 8 16 13 20 10 4 -3 10 4 13 16 4 15 11 18 29 14 13 -4 32 -7 41 -9z m-193 -6 c0 -5 -4 -10 -10 -10 -5 0 -10 5 -10 10 0 6 5 10 10 10 6 0 10 -4 10 -10z m360 -70 c0 -5 -7 -10 -15 -10 -8 0 -15 5 -15 10 0 6 7 10 15 10 8 0 15 -4 15 -10z m790 0 c0 -5 -7 -7 -15 -4 -8 4 -15 8 -15 10 0 2 7 4 15 4 8 0 15 -4 15 -10z m-1740 -340 c0 -5 -5 -10 -11 -10 -5 0 -7 5 -4 10 3 6 8 10 11 10 2 0 4 -4 4 -10z"/> <path d="M2171 2247 c-23 -25 -27 -37 -11 -37 6 0 10 7 10 15 0 9 6 12 15 9 12 -5 13 -9 4 -20 -13 -16 -6 -30 10 -19 13 7 15 62 2 69 -4 3 -18 -5 -30 -17z"/> <path d="M2225 2230 c3 -5 8 -10 11 -10 2 0 4 5 4 10 0 6 -5 10 -11 10 -5 0 -7 -4 -4 -10z"/> <path d="M2226 2195 c-10 -7 -16 -19 -14 -25 2 -6 14 0 27 14 26 28 18 35 -13 11z"/> <path d="M765 1760 c3 -5 11 -10 16 -10 6 0 7 5 4 10 -3 6 -11 10 -16 10 -6 0 -7 -4 -4 -10z"/> <path d="M1505 1540 c3 -5 8 -10 11 -10 2 0 4 5 4 10 0 6 -5 10 -11 10 -5 0 -7 -4 -4 -10z"/> <path d="M1408 2734 c-5 -4 -8 -20 -8 -36 0 -24 -4 -28 -30 -28 -16 0 -30 -4 -30 -9 0 -7 79 -6 85 1 7 7 -11 79 -17 72z"/> <path d="M1608 2700 c-5 -36 -5 -36 45 -45 25 -5 37 -4 37 4 0 6 -14 11 -31 11 -27 0 -30 3 -27 27 4 37 -19 41 -24 3z"/> <path d="M1300 2695 c0 -25 -6 -33 -31 -42 -39 -15 -49 -10 -49 23 0 16 -5 24 -12 21 -8 -2 -12 -17 -11 -34 2 -27 -1 -31 -28 -37 -45 -9 -46 -8 -52 14 -3 11 -11 20 -17 20 -7 0 -9 -7 -6 -15 3 -8 9 -21 12 -29 4 -9 -6 -18 -30 -26 -38 -12 -56 -7 -56 16 0 8 -7 14 -15 14 -19 0 -19 -11 -1 -35 13 -18 11 -21 -23 -36 -35 -16 -36 -16 -49 9 -9 16 -17 21 -24 14 -7 -7 -6 -18 3 -33 9 -17 9 -24 0 -27 -6 -2 -18 -10 -25 -18 -20 -19 -29 -18 -44 7 -10 16 -17 18 -25 10 -8 -8 -6 -16 7 -30 16 -18 16 -20 -15 -42 l-32 -22 -18 21 c-23 29 -35 10 -14 -21 14 -22 13 -24 -16 -46 -29 -22 -31 -22 -50 -5 -26 23 -37 10 -14 -16 18 -20 18 -21 -8 -47 -25 -25 -27 -26 -45 -10 -10 9 -22 17 -25 17 -14 0 -7 -31 8 -36 22 -9 18 -27 -10 -54 -21 -19 -27 -21 -40 -10 -11 9 -19 10 -26 3 -8 -8 -5 -13 10 -18 22 -7 29 -31 10 -37 -6 -2 -9 -13 -7 -23 3 -17 6 -16 20 10 9 17 29 44 43 60 14 17 45 52 68 79 23 27 47 53 52 57 6 5 24 20 40 35 17 14 46 38 65 53 19 14 41 32 48 39 7 6 18 12 24 12 6 0 19 6 27 14 39 33 186 100 244 111 20 4 40 11 43 16 3 5 15 9 27 9 12 0 39 5 60 11 40 11 48 31 22 65 -14 18 -14 18 -15 -11z"/> <path d="M1710 2685 c0 -14 0 -28 -1 -32 0 -4 4 -9 10 -11 6 -2 11 7 11 20 0 13 5 29 12 36 9 9 7 12 -10 12 -17 0 -22 -6 -22 -25z"/> <path d="M1892 2680 c0 -14 2 -19 5 -12 2 6 2 18 0 25 -3 6 -5 1 -5 -13z"/> <path d="M1816 2664 c-5 -17 -12 -24 -21 -20 -8 3 -15 1 -15 -4 0 -6 11 -10 24 -10 14 0 27 -4 30 -9 3 -5 28 -14 56 -21 27 -7 50 -16 50 -21 0 -5 8 -9 18 -9 20 0 113 -45 157 -76 17 -12 35 -23 42 -25 47 -16 263 -232 322 -323 42 -64 43 -65 67 -49 13 8 24 22 24 30 0 13 -3 13 -24 0 -22 -15 -24 -14 -46 15 l-23 31 24 18 c31 23 17 37 -18 18 -21 -11 -27 -11 -31 -1 -2 7 -11 19 -19 28 -14 13 -13 17 2 34 23 25 11 39 -13 17 -17 -16 -20 -15 -48 14 l-29 31 23 18 c14 12 18 21 12 25 -6 4 -20 -1 -31 -11 -19 -17 -21 -17 -46 9 -26 25 -26 27 -9 46 13 14 14 21 5 26 -7 5 -16 1 -21 -9 -12 -21 -28 -20 -57 5 -21 17 -23 23 -13 40 15 24 15 29 -2 29 -8 0 -16 -7 -20 -15 -7 -20 -26 -18 -54 5 -20 16 -21 22 -10 39 17 28 0 40 -20 15 -16 -20 -20 -20 -49 -8 -33 14 -41 28 -23 39 15 10 12 35 -5 35 -9 0 -15 -9 -15 -21 0 -18 -4 -20 -32 -14 -47 10 -50 14 -43 46 8 34 -14 42 -22 8 -5 -17 -11 -20 -36 -15 -16 3 -34 6 -39 6 -5 0 -7 13 -3 30 8 37 -10 41 -19 4z"/> <path d="M1740 2650 c0 -5 7 -10 15 -10 8 0 15 5 15 10 0 6 -7 10 -15 10 -8 0 -15 -4 -15 -10z"/> <path d="M1197 2592 c-9 -2 -17 -8 -17 -13 0 -12 43 -12 56 0 5 5 20 11 34 14 14 3 7 4 -16 3 -22 0 -48 -2 -57 -4z"/> <path d="M770 2459 c0 -5 5 -7 10 -4 6 3 10 8 10 11 0 2 -4 4 -10 4 -5 0 -10 -5 -10 -11z"/> <path d="M661 2444 c0 -11 3 -14 6 -6 3 7 2 16 -1 19 -3 4 -6 -2 -5 -13z"/> <path d="M1540 2456 c0 -2 7 -17 15 -32 16 -30 19 -25 9 14 -5 18 -24 33 -24 18z"/> <path d="M1535 2380 c3 -5 8 -10 11 -10 2 0 4 5 4 10 0 6 -5 10 -11 10 -5 0 -7 -4 -4 -10z"/> <path d="M557 2239 c7 -7 15 -10 18 -7 3 3 -2 9 -12 12 -14 6 -15 5 -6 -5z"/> <path d="M830 2210 c0 -5 5 -10 10 -10 6 0 10 5 10 10 0 6 -4 10 -10 10 -5 0 -10 -4 -10 -10z"/> <path d="M464 2129 c-3 -6 3 -17 15 -25 12 -9 19 -20 16 -25 -4 -5 -2 -9 4 -9 9 0 27 39 19 43 -1 1 -13 8 -25 14 -15 9 -24 9 -29 2z"/> <path d="M1616 2083 c-6 -14 -5 -15 5 -6 7 7 10 15 7 18 -3 3 -9 -2 -12 -12z"/> <path d="M2533 2058 c3 -7 16 -38 29 -68 13 -30 26 -56 31 -58 4 -2 7 -10 7 -17 0 -12 5 -12 31 -1 17 7 29 17 27 22 -3 10 -14 10 -40 -1 -12 -5 -18 1 -23 24 -4 17 -12 31 -18 32 -7 0 3 7 21 15 43 19 42 38 -2 30 -29 -6 -35 -3 -41 14 -3 11 -11 20 -17 20 -5 0 -8 -6 -5 -12z"/> <path d="M474 2043 c-10 -16 -15 -16 -34 -5 -15 9 -26 10 -32 4 -7 -7 1 -16 22 -27 18 -9 28 -20 23 -24 -6 -3 -14 -17 -18 -30 -6 -19 -12 -22 -36 -17 -22 4 -29 2 -29 -9 0 -9 9 -15 21 -15 19 0 20 -4 15 -35 -4 -21 -3 -35 3 -35 6 0 13 17 17 38 3 20 12 46 19 57 6 11 17 37 24 58 7 20 17 37 22 37 5 0 9 5 9 10 0 16 -14 12 -26 -7z"/> <path d="M1256 2015 c-10 -8 -24 -16 -30 -18 -6 -2 -8 -7 -5 -11 8 -8 58 16 64 32 6 16 -5 15 -29 -3z"/> <path d="M1740 2022 c0 -13 46 -35 62 -30 8 3 1 11 -19 21 -36 19 -43 20 -43 9z"/> <path d="M631 1974 c0 -11 3 -14 6 -6 3 7 2 16 -1 19 -3 4 -6 -2 -5 -13z"/> <path d="M1146 1955 c-5 -14 4 -19 31 -16 6 1 31 -12 55 -28 72 -49 62 -25 -13 32 -40 30 -64 34 -73 12z"/> <path d="M780 1943 c0 -7 6 -13 14 -13 7 0 18 6 24 13 8 9 4 12 -14 12 -13 0 -24 -6 -24 -12z"/> <path d="M825 1925 c-16 -13 -26 -28 -22 -32 12 -11 61 20 65 40 5 23 -7 21 -43 -8z"/> <path d="M2610 1881 c0 -4 5 -23 11 -40 10 -28 15 -32 38 -26 41 10 49 25 13 25 -25 0 -33 5 -38 25 -6 23 -24 36 -24 16z"/> <path d="M1290 1863 c0 -15 18 -35 23 -27 3 5 -1 15 -9 22 -8 7 -14 9 -14 5z"/> <path d="M1970 1826 c0 -8 4 -16 8 -18 4 -1 15 -19 25 -38 12 -25 17 -29 17 -15 0 19 -34 85 -45 85 -3 0 -5 -6 -5 -14z"/> <path d="M1030 1800 c0 -5 5 -10 10 -10 6 0 10 5 10 10 0 6 -4 10 -10 10 -5 0 -10 -4 -10 -10z"/> <path d="M1820 1790 c0 -5 5 -10 10 -10 6 0 10 5 10 10 0 6 -4 10 -10 10 -5 0 -10 -4 -10 -10z"/> <path d="M2641 1790 c0 -13 14 -127 22 -172 4 -24 17 -35 17 -14 0 9 4 14 10 11 5 -3 20 0 32 7 22 12 22 13 -12 18 -32 5 -35 8 -38 43 -3 34 -1 37 23 37 17 0 25 5 22 13 -2 6 -17 12 -33 12 -24 0 -30 5 -35 30 -4 17 -7 23 -8 15z"/> <path d="M1777 1711 c4 -16 8 -17 18 -8 15 14 10 27 -10 27 -8 0 -11 -7 -8 -19z"/> <path d="M1310 1702 c0 -14 39 -46 47 -39 3 4 -2 16 -12 27 -19 21 -35 26 -35 12z"/> <path d="M30 1612 c0 -15 6 -17 36 -14 24 3 32 7 23 13 -7 4 -17 5 -21 3 -4 -3 -8 0 -8 5 0 6 -7 11 -15 11 -8 0 -15 -8 -15 -18z"/> <path d="M2188 1603 c7 -3 16 -2 19 1 4 3 -2 6 -13 5 -11 0 -14 -3 -6 -6z"/> <path d="M102 1584 c-5 -9 -23 -16 -44 -17 -31 -1 -34 -4 -30 -24 3 -17 8 -21 17 -13 6 5 15 7 18 4 3 -4 13 1 22 10 9 9 26 16 38 16 12 0 29 4 37 10 11 7 9 11 -13 19 -36 14 -34 14 -45 -5z"/> <path d="M2850 1536 c0 -36 5 -58 15 -66 21 -17 32 -4 17 20 -25 41 -16 55 37 55 60 -1 68 -7 48 -39 -17 -26 -13 -38 9 -29 10 3 14 22 14 59 0 50 -10 68 -25 44 -3 -5 -26 -10 -51 -10 -24 0 -44 5 -44 10 0 6 -4 10 -10 10 -5 0 -10 -24 -10 -54z"/> <path d="M528 1563 c6 -2 18 -2 25 0 6 3 1 5 -13 5 -14 0 -19 -2 -12 -5z"/> <path d="M100 1521 c12 -8 9 -12 -14 -21 -16 -6 -36 -8 -45 -5 -12 3 -16 -2 -17 -20 -2 -29 -4 -29 32 -10 16 8 46 18 67 21 54 9 50 25 -8 38 -21 5 -26 4 -15 -3z"/> <path d="M2910 1520 c-10 -6 -11 -13 -5 -19 6 -6 16 -7 25 -1 10 6 11 13 5 19 -6 6 -16 7 -25 1z"/> <path d="M2630 1509 c-25 -5 -50 -7 -57 -5 -6 3 -14 -2 -17 -10 -4 -10 -13 -13 -30 -8 -13 3 -27 1 -31 -5 -3 -6 -10 -9 -15 -6 -5 3 -33 -1 -62 -10 -28 -8 -64 -15 -80 -15 -15 0 -28 -4 -28 -9 0 -5 -36 -14 -80 -22 -44 -7 -80 -16 -80 -21 0 -11 33 -10 86 3 25 6 47 9 51 6 10 -10 -18 -67 -33 -67 -30 0 -109 25 -117 37 -9 14 -37 18 -37 5 0 -19 40 -44 91 -57 58 -15 71 -29 62 -62 -3 -14 -1 -23 6 -23 6 0 11 6 11 13 0 19 37 50 49 42 17 -10 13 3 -11 35 -17 24 -19 32 -9 44 7 8 10 20 6 26 -4 6 6 13 24 16 17 4 31 9 31 13 0 4 10 8 23 9 42 4 122 19 141 27 17 8 18 4 12 -56 -16 -144 -81 -332 -150 -430 -26 -38 -19 -58 9 -25 20 25 26 28 39 17 20 -17 20 -40 1 -65 -8 -11 -15 -24 -15 -29 0 -16 29 13 36 36 4 12 19 41 35 65 16 24 29 46 29 50 0 4 7 19 14 35 8 15 11 27 7 27 -5 0 -19 -20 -32 -45 -19 -36 -28 -44 -44 -39 -31 10 -31 11 2 72 31 59 53 69 79 34 10 -13 13 -9 19 26 4 23 10 42 15 42 4 0 13 28 19 63 6 34 16 82 21 107 5 25 11 66 12 92 3 45 7 52 25 46 4 -2 6 -25 4 -53 -8 -138 -10 -130 28 -133 40 -4 40 21 -1 26 -25 3 -25 5 -16 43 9 32 15 39 34 39 15 0 24 6 24 15 0 9 -9 15 -25 15 -22 0 -25 4 -25 36 0 30 3 34 19 29 11 -3 22 -1 26 5 7 12 -30 12 -95 -1z m-6 -48 c-4 -9 -10 -36 -13 -61 -4 -27 -11 -45 -18 -44 -7 1 -19 2 -25 2 -9 2 -12 20 -10 65 l4 63 34 -4 c28 -4 34 -8 28 -21z m-24 -175 c0 -7 -3 -16 -7 -20 -5 -4 -13 -26 -19 -49 -9 -36 -14 -42 -34 -39 -13 1 -25 3 -26 5 -6 6 30 123 39 129 14 9 47 -9 47 -26z"/> <path d="M1863 1482 c-18 -9 -33 -19 -33 -23 0 -11 31 -4 39 10 4 6 16 9 27 5 16 -5 17 -4 4 6 -12 9 -10 11 10 6 14 -3 39 -1 55 3 27 8 24 9 -20 9 -27 0 -65 -8 -82 -16z"/> <path d="M2260 1496 c0 -2 9 -6 20 -9 11 -3 18 -1 14 4 -5 9 -34 13 -34 5z"/> <path d="M1990 1480 c-17 -6 -19 -8 -7 -9 20 -1 61 -25 94 -55 13 -10 25 -17 28 -14 8 8 -63 68 -81 68 -8 0 -12 5 -9 10 3 6 5 10 3 9 -2 -1 -14 -5 -28 -9z"/> <path d="M351 1463 c-1 -18 -7 -23 -27 -23 -27 0 -30 -24 -3 -26 8 -1 20 -2 27 -3 7 -1 12 -16 12 -41 0 -33 -3 -40 -20 -40 -12 0 -20 -7 -20 -16 0 -12 6 -15 23 -10 12 3 25 6 28 6 12 0 8 76 -6 126 -7 27 -14 39 -14 27z"/> <path d="M2218 1453 c6 -2 18 -2 25 0 6 3 1 5 -13 5 -14 0 -19 -2 -12 -5z"/> <path d="M2815 1420 c-3 -5 1 -10 10 -10 9 0 13 5 10 10 -3 6 -8 10 -10 10 -2 0 -7 -4 -10 -10z"/> <path d="M645 1360 c-3 -5 -25 -15 -48 -21 -23 -6 -51 -15 -62 -20 -11 -4 -34 -12 -52 -16 -28 -7 -30 -10 -18 -26 18 -26 66 -24 103 3 27 20 39 22 116 18 l86 -4 25 31 24 32 -52 7 c-75 9 -115 7 -122 -4z"/> <path d="M1950 1360 c13 -9 12 -10 -5 -8 -11 1 -22 -2 -25 -7 -3 -6 15 -11 43 -12 35 -1 47 2 47 13 0 8 -6 14 -12 14 -7 0 -24 3 -38 6 -20 5 -22 4 -10 -6z"/> <path d="M2008 1290 c-9 -22 -12 -42 -8 -45 12 -7 43 66 33 76 -5 4 -16 -10 -25 -31z"/> <path d="M370 1280 c0 -11 5 -20 10 -20 6 0 10 9 10 20 0 11 -4 20 -10 20 -5 0 -10 -9 -10 -20z"/> <path d="M2036 1238 c-27 -57 -29 -90 -3 -54 11 16 17 14 75 -20 61 -37 74 -58 50 -82 -23 -23 2 -25 27 -2 15 14 31 21 45 17 24 -6 25 1 3 33 -12 17 -13 25 -5 28 7 2 12 8 12 13 0 14 -22 11 -40 -6 -16 -14 -23 -12 -79 21 -65 39 -68 43 -49 74 8 13 9 23 3 29 -6 5 -21 -14 -39 -51z"/> <path d="M2636 1253 c-3 -21 -7 -44 -8 -50 -1 -7 -5 -13 -9 -13 -7 0 -23 -69 -17 -75 2 -2 15 -6 31 -10 21 -6 27 -4 27 9 0 10 -9 16 -25 16 -14 0 -25 5 -25 10 0 6 4 10 9 10 5 0 11 14 15 30 5 27 9 30 31 24 19 -5 25 -2 25 10 0 9 -3 15 -7 15 -29 -5 -35 3 -29 31 3 17 2 30 -3 30 -5 0 -12 -17 -15 -37z"/> <path d="M430 1265 c0 -24 17 -85 28 -103 7 -11 16 -11 48 -1 36 11 40 15 36 41 -2 16 -11 28 -19 28 -9 0 -13 -8 -11 -22 2 -19 -2 -24 -24 -26 -22 -3 -28 1 -28 16 0 11 -7 35 -15 53 -10 24 -14 28 -15 14z"/> <path d="M1025 1250 c-3 -5 -1 -10 4 -10 6 0 11 5 11 10 0 6 -2 10 -4 10 -3 0 -8 -4 -11 -10z"/> <path d="M380 1240 c-8 -5 -24 -11 -34 -15 -29 -9 -6 -24 27 -18 18 4 27 12 27 24 0 21 1 21 -20 9z"/> <path d="M970 1232 c0 -18 -116 -70 -143 -65 -19 4 -27 1 -27 -8 0 -8 -3 -24 -6 -36 -5 -19 -2 -23 19 -23 16 0 31 -9 42 -27 23 -36 66 -83 77 -83 5 0 -10 25 -32 55 -22 30 -40 62 -40 73 0 11 16 26 43 40 23 12 49 26 57 31 8 5 23 12 33 15 16 5 17 8 3 21 -16 17 -26 19 -26 7z"/> <path d="M1070 1209 c0 -11 -4 -17 -10 -14 -5 3 -10 1 -10 -4 0 -14 16 -14 41 0 16 8 18 13 8 25 -16 20 -29 17 -29 -7z"/> <path d="M400 1180 c0 -11 5 -20 11 -20 8 0 8 -5 -1 -15 -7 -8 -19 -15 -26 -15 -8 0 -14 -7 -14 -15 0 -8 4 -15 10 -15 18 0 52 41 46 57 -3 8 -6 21 -6 29 0 8 -4 14 -10 14 -5 0 -10 -9 -10 -20z"/> <path d="M1000 1191 c0 -6 5 -13 10 -16 16 -10 12 -43 -7 -63 -27 -27 -55 -73 -49 -79 9 -9 61 49 77 85 8 18 17 32 21 32 4 0 -4 11 -18 25 -27 27 -34 30 -34 16z"/> <path d="M1509 1193 c-1 -4 -1 -12 0 -17 3 -12 -1 -472 -3 -568 -2 -55 0 -65 11 -56 8 6 13 28 12 52 -1 23 -1 159 0 304 l1 264 38 -6 c20 -3 47 -5 58 -6 12 0 32 -8 44 -18 19 -15 20 -21 9 -47 -6 -17 -13 -41 -14 -55 -1 -14 -5 -36 -9 -50 -7 -24 -14 -69 -15 -100 -1 -12 -3 -12 -10 -2 -7 11 -10 10 -15 -3 -3 -9 -4 -20 -1 -24 9 -16 -51 -295 -65 -299 -5 -2 -10 -10 -10 -18 0 -8 -9 -14 -20 -14 -25 0 -27 -20 -2 -21 14 0 14 -2 -3 -9 -17 -7 -17 -9 -2 -9 21 -1 22 -8 2 -27 -17 -17 -20 -34 -6 -34 9 0 -3 -83 -15 -101 -9 -15 6 -100 16 -94 4 3 13 38 20 78 6 39 14 79 17 87 3 8 5 21 4 27 -5 30 18 50 59 51 23 1 46 4 51 8 5 3 10 0 10 -5 4 -36 3 -46 -8 -46 -6 0 -15 -3 -19 -7 -4 -5 -23 -8 -43 -9 -20 0 -30 -3 -22 -6 17 -7 170 14 231 32 100 29 177 62 222 93 26 17 51 32 57 32 14 0 13 11 -3 33 -9 11 -20 15 -32 10 -18 -7 -18 -6 -2 11 10 9 40 32 68 51 l50 33 19 -25 c18 -22 22 -23 40 -11 19 14 19 15 -15 42 -37 29 -36 30 -104 -23 -67 -51 -234 -127 -336 -152 -49 -12 -93 -26 -99 -30 -10 -10 -98 -12 -108 -3 -3 3 -2 14 3 23 10 18 27 81 43 159 l10 52 44 0 c30 0 45 -5 49 -15 8 -21 24 -19 24 4 0 23 15 35 63 51 22 7 51 18 65 26 23 11 30 11 49 -2 22 -14 23 -13 23 15 0 23 8 34 35 51 34 21 46 40 24 40 -6 0 -22 -9 -36 -20 -27 -21 -63 -27 -63 -10 0 9 -61 112 -75 128 -2 2 -33 -10 -69 -27 -36 -17 -70 -31 -76 -31 -12 0 -14 27 -1 34 11 7 35 151 27 165 -13 20 -195 62 -197 44z m340 -277 c18 -35 30 -69 27 -75 -6 -10 -29 -21 -98 -49 -36 -15 -57 -6 -64 27 -3 14 -12 47 -19 74 -12 45 -12 47 9 47 11 1 37 9 56 20 19 11 40 19 45 20 6 0 25 -29 44 -64z m-163 -90 c6 -49 5 -52 -20 -64 -35 -16 -39 -3 -21 64 8 32 15 67 16 79 1 35 18 -19 25 -79z m354 -261 c0 -7 -18 -17 -41 -24 -22 -7 -43 -19 -46 -27 -7 -20 -30 -17 -43 5 -17 32 -12 39 40 56 27 9 53 21 56 27 8 12 34 -17 34 -37z m-180 -65 c0 -26 -4 -29 -50 -39 -62 -13 -80 -14 -80 -2 0 5 -3 16 -6 25 -4 11 0 16 14 16 11 0 39 9 63 19 50 23 59 20 59 -19z"/> <path d="M1147 1174 c5 -15 43 -26 43 -13 0 5 7 9 16 9 20 0 14 -20 -11 -34 -19 -11 -29 -19 -59 -43 -21 -18 -66 -27 -66 -14 0 6 9 11 21 11 11 0 18 4 15 9 -3 5 7 15 23 23 22 10 27 18 21 28 -10 16 -15 12 -139 -108 -35 -35 -70 -66 -76 -70 -34 -20 -76 -63 -70 -72 4 -6 18 -1 37 15 16 14 38 25 49 25 10 0 46 -21 80 -47 48 -38 59 -51 55 -69 -8 -29 4 -37 26 -17 17 15 21 15 61 -5 23 -11 55 -24 71 -28 19 -4 33 -17 41 -38 11 -26 15 -28 20 -13 5 12 18 17 46 17 36 0 39 -2 39 -28 0 -16 3 -32 7 -36 8 -8 10 -14 23 -91 11 -62 16 -73 26 -62 10 10 -15 150 -28 158 -6 4 -9 18 -6 33 3 14 1 27 -4 28 -5 2 -11 15 -13 28 -2 14 -9 41 -14 60 -10 31 -10 29 -6 -22 5 -61 -1 -70 -28 -40 -19 21 -13 92 9 105 9 5 10 16 4 38 -5 16 -7 36 -4 44 3 7 1 16 -5 20 -16 9 -13 51 5 69 8 9 11 16 5 16 -5 0 -15 -8 -20 -17 -9 -16 -10 -15 -11 8 0 14 -3 29 -7 32 -3 4 -7 17 -8 30 -1 12 -5 30 -10 40 -6 13 -2 17 16 17 12 0 20 3 16 6 -3 3 -48 7 -100 8 -69 1 -93 -2 -90 -10z m157 -85 c4 -32 12 -59 17 -59 6 0 8 -9 4 -19 -3 -11 -1 -22 5 -26 14 -8 13 -25 -2 -25 -19 0 -133 57 -147 74 -7 9 -20 16 -27 16 -17 0 -19 30 -1 30 6 0 37 18 67 38 30 21 60 37 66 35 6 -2 15 -31 18 -64z m-164 -49 c0 -6 11 -16 25 -22 19 -8 24 -16 19 -31 -11 -36 -59 -106 -76 -110 -15 -4 -80 36 -119 73 -14 13 -11 17 28 42 24 15 47 28 52 28 5 0 14 7 21 15 14 17 50 20 50 5z m141 -82 c32 -13 59 -29 59 -36 0 -7 -7 -29 -15 -49 -8 -19 -15 -42 -15 -51 0 -8 -7 -20 -16 -27 -23 -16 -144 32 -144 57 0 23 55 128 67 128 3 0 32 -10 64 -22z"/> <path d="M1210 1062 c1 -13 47 -41 76 -47 16 -3 22 -2 14 1 -8 4 -17 10 -20 13 -9 11 -70 40 -70 33z"/> <path d="M1228 893 c7 -3 16 -2 19 1 4 3 -2 6 -13 5 -11 0 -14 -3 -6 -6z"/> <path d="M1350 1180 c0 -5 5 -10 11 -10 5 0 7 5 4 10 -3 6 -8 10 -11 10 -2 0 -4 -4 -4 -10z"/> <path d="M1380 1181 c0 -9 99 -4 109 5 2 2 -21 4 -52 4 -31 0 -57 -4 -57 -9z"/> <path d="M1350 1150 c0 -5 5 -10 10 -10 6 0 10 5 10 10 0 6 -4 10 -10 10 -5 0 -10 -4 -10 -10z"/> <path d="M1375 1130 c-3 -5 -1 -10 4 -10 6 0 11 5 11 10 0 6 -2 10 -4 10 -3 0 -8 -4 -11 -10z"/> <path d="M1760 1112 c0 -17 60 -79 99 -100 49 -28 55 -13 9 19 -18 13 -47 38 -63 56 -30 32 -45 41 -45 25z"/> <path d="M1330 1101 c0 -6 4 -13 10 -16 6 -3 7 1 4 9 -7 18 -14 21 -14 7z"/> <path d="M1360 1096 c0 -2 7 -7 16 -10 8 -3 12 -2 9 4 -6 10 -25 14 -25 6z"/> <path d="M2569 1063 c-6 -21 -18 -44 -26 -51 -7 -7 -13 -19 -13 -26 0 -7 -8 -24 -18 -37 -27 -35 -34 -59 -16 -52 7 3 14 11 14 19 0 8 7 14 15 14 8 0 15 -4 15 -10 0 -5 7 -10 15 -10 22 0 18 15 -7 32 -21 14 -21 16 -5 32 9 10 17 24 17 31 0 11 8 13 30 9 33 -7 42 10 10 19 -20 5 -29 37 -10 37 6 0 10 7 10 15 0 28 -18 15 -31 -22z"/> <path d="M574 1068 c4 -13 10 -30 12 -39 4 -11 -2 -18 -17 -22 -22 -6 -27 -3 -49 33 -4 8 -11 12 -14 9 -7 -6 91 -173 105 -177 5 -2 7 -8 3 -13 -3 -5 0 -9 5 -9 6 0 11 3 11 6 0 11 -23 50 -43 72 -20 22 -20 22 -1 37 26 20 31 19 45 -7 7 -13 17 -28 23 -35 33 -37 37 -45 32 -59 -3 -7 -12 -14 -20 -14 -25 0 -28 -19 -7 -42 l21 -21 21 27 22 28 48 -48 c27 -27 49 -51 49 -54 0 -3 -9 -11 -20 -17 -20 -13 -50 -8 -50 8 0 15 -37 52 -49 48 -10 -4 51 -79 64 -79 4 0 31 -21 60 -47 30 -27 71 -57 92 -68 21 -10 57 -32 79 -47 53 -35 247 -108 288 -108 17 0 56 -6 86 -13 31 -8 62 -11 69 -9 7 2 17 -2 22 -9 15 -26 19 -2 7 49 l-13 52 -42 0 c-23 0 -54 5 -70 11 -15 6 -59 20 -98 31 -151 42 -267 102 -384 196 l-44 36 22 17 c27 22 27 36 0 44 -24 8 -44 -14 -29 -29 13 -13 13 -26 0 -26 -5 0 -10 7 -10 16 0 8 -5 12 -11 8 -8 -4 -9 1 -4 17 4 13 13 27 19 31 6 4 7 10 4 13 -10 10 -28 -4 -28 -21 0 -8 -7 -14 -15 -14 -8 0 -15 4 -15 9 0 5 7 14 15 21 18 15 20 43 3 38 -7 -3 -14 -14 -16 -26 -2 -12 -6 -22 -10 -22 -11 1 -132 178 -144 210 -12 35 -34 42 -24 8z m266 -258 c0 -5 -2 -10 -4 -10 -3 0 -8 5 -11 10 -3 6 -1 10 4 10 6 0 11 -4 11 -10z m41 -116 c7 -8 26 -22 43 -31 42 -22 47 -33 25 -56 -18 -20 -18 -20 -53 11 -19 17 -42 35 -51 40 -15 8 -15 12 -4 30 16 26 22 27 40 6z m167 -104 c18 -11 38 -20 45 -20 29 -1 37 -15 24 -43 -13 -29 -32 -35 -40 -14 -3 7 -23 19 -46 27 -44 14 -44 14 -35 48 8 27 11 27 52 2z m230 -87 c16 -4 22 -13 22 -30 0 -24 -2 -25 -47 -18 -72 11 -92 21 -90 47 2 33 16 39 56 21 20 -8 46 -18 59 -20z m143 -23 c21 0 28 -6 33 -26 4 -15 5 -28 3 -31 -3 -2 -28 -1 -56 3 -48 6 -51 8 -51 36 0 27 3 30 23 24 12 -3 34 -6 48 -6z"/> <path d="M1615 1050 c-3 -5 -1 -10 4 -10 6 0 11 5 11 10 0 6 -2 10 -4 10 -3 0 -8 -4 -11 -10z"/> <path d="M434 1040 c-12 -5 -25 -14 -29 -21 -6 -9 1 -10 29 -5 21 4 36 3 36 -3 0 -5 7 -17 16 -26 13 -12 14 -19 4 -30 -7 -8 -19 -15 -26 -15 -17 0 -19 -16 -3 -25 5 -4 18 0 28 10 18 15 20 14 41 -20 23 -37 21 -46 -14 -58 -5 -2 -6 -9 -2 -16 6 -9 12 -8 27 4 17 16 19 16 43 -11 30 -35 31 -40 9 -53 -14 -8 -15 -12 -6 -22 10 -10 14 -9 19 4 7 20 34 23 34 3 0 -8 7 -16 15 -20 17 -6 21 -36 5 -36 -5 0 -10 -7 -10 -15 0 -8 7 -15 15 -15 8 0 15 5 15 10 0 16 23 11 48 -9 26 -22 27 -30 7 -45 -10 -7 -12 -16 -6 -25 8 -12 13 -11 28 8 17 21 20 22 32 7 7 -9 20 -16 27 -16 17 0 18 -22 3 -37 -8 -8 -8 -16 0 -30 7 -12 10 -14 11 -4 0 8 7 22 16 32 15 17 14 20 -17 49 -18 16 -37 30 -42 30 -9 0 -169 163 -209 213 -16 19 -28 39 -28 45 0 6 -6 17 -13 24 -7 7 -25 39 -41 71 -29 60 -29 60 -62 47z"/> <path d="M1381 1034 c0 -11 3 -14 6 -6 3 7 2 16 -1 19 -3 4 -6 -2 -5 -13z"/> <path d="M2080 1042 c0 -15 51 -62 67 -62 16 0 200 -95 224 -116 34 -30 40 -13 12 36 -15 27 -34 50 -41 50 -31 0 -120 36 -152 61 -19 16 -44 28 -55 27 -11 0 -28 3 -37 7 -10 4 -18 3 -18 -3z"/> <path d="M1755 1029 c-4 -6 -5 -13 -2 -16 7 -7 27 6 27 18 0 12 -17 12 -25 -2z"/> <path d="M1350 1016 c0 -2 7 -9 15 -16 13 -11 14 -10 9 4 -5 14 -24 23 -24 12z"/> <path d="M865 999 c-4 -6 -5 -12 -2 -15 2 -3 7 2 10 11 7 17 1 20 -8 4z"/> <path d="M2210 881 c-13 -25 -13 -31 0 -31 6 0 10 7 10 17 0 15 1 15 18 0 25 -23 50 -24 32 -1 -26 30 -48 36 -60 15z"/> <path d="M2460 867 c0 -16 32 -47 48 -47 20 0 13 28 -8 35 -11 3 -20 11 -20 16 0 5 -4 9 -10 9 -5 0 -10 -6 -10 -13z"/> <path d="M2287 845 c-10 -15 -23 -22 -30 -19 -7 4 -9 4 -5 -1 4 -4 3 -14 -4 -22 -6 -7 -8 -17 -4 -21 4 -4 18 5 30 21 12 15 27 27 34 27 16 0 35 -38 26 -53 -4 -6 5 0 20 15 14 15 26 31 26 35 0 7 -31 25 -65 39 -5 2 -18 -8 -28 -21z"/> <path d="M2425 829 c-4 -6 -5 -13 -2 -16 7 -7 27 6 27 18 0 12 -17 12 -25 -2z"/> <path d="M2380 769 c-52 -64 -66 -79 -73 -79 -6 0 -34 -23 -87 -71 -9 -9 -43 -31 -74 -50 -53 -32 -57 -36 -51 -64 6 -34 28 -52 34 -28 2 10 -2 19 -8 21 -23 8 -9 37 23 53 34 15 35 15 46 -10 9 -19 13 -22 20 -11 5 7 3 21 -3 31 -9 14 -6 21 14 38 30 25 45 26 58 4 15 -28 26 -6 11 22 -12 22 -11 26 11 44 29 25 33 25 49 6 7 -8 16 -15 21 -15 14 0 11 22 -5 39 -13 14 -11 20 10 45 24 27 26 28 45 11 10 -10 22 -16 25 -12 6 6 -26 56 -36 57 -3 0 -16 -14 -30 -31z"/> <path d="M1430 760 c0 -5 5 -10 10 -10 6 0 10 5 10 10 0 6 -4 10 -10 10 -5 0 -10 -4 -10 -10z"/> <path d="M1461 724 c0 -11 3 -14 6 -6 3 7 2 16 -1 19 -3 4 -6 -2 -5 -13z"/> <path d="M2400 690 c0 -5 5 -10 10 -10 6 0 10 5 10 10 0 6 -4 10 -10 10 -5 0 -10 -4 -10 -10z"/> <path d="M2138 620 c-19 -18 -26 -30 -18 -30 15 1 70 44 70 55 0 13 -21 3 -52 -25z"/> <path d="M870 560 c0 -5 11 -12 25 -16 29 -7 30 -13 10 -40 -19 -25 -19 -34 0 -34 9 0 20 11 27 24 l11 25 33 -27 c24 -19 30 -29 23 -39 -11 -13 -4 -33 12 -33 5 0 9 9 9 20 0 17 5 20 28 16 15 -2 33 -5 41 -5 10 -1 12 -10 7 -36 -4 -22 -3 -35 4 -35 5 0 10 6 10 14 0 22 17 29 55 22 32 -6 34 -9 28 -36 -6 -34 12 -42 22 -10 4 14 15 20 33 20 40 0 55 -14 47 -40 -5 -16 -4 -21 6 -18 8 3 15 15 17 27 3 15 8 21 19 17 8 -3 26 -6 39 -6 18 0 25 -5 23 -17 -3 -30 1 -43 10 -43 5 0 11 12 13 28 2 19 9 28 26 30 15 2 22 -2 22 -12 0 -9 5 -16 10 -16 6 0 10 8 10 19 0 16 -12 19 -96 25 -52 3 -103 10 -112 15 -9 5 -42 14 -72 20 -63 13 -62 13 -112 35 -21 9 -44 16 -53 16 -8 0 -15 5 -15 10 0 6 -6 10 -13 10 -7 0 -22 7 -32 15 -39 30 -96 65 -105 65 -6 0 -10 -4 -10 -10z"/> <path d="M2058 512 c-4 -11 -94 -52 -115 -52 -13 0 -14 -3 -5 -12 10 -10 17 -10 33 0 22 14 39 8 39 -14 0 -8 7 -14 15 -14 17 0 20 16 5 25 -17 11 -11 23 20 42 17 9 30 21 30 25 0 10 -17 10 -22 0z"/> <path d="M1900 442 c0 -5 -20 -13 -45 -16 -52 -8 -59 -15 -45 -50 13 -36 33 -34 25 3 -5 24 -2 29 17 35 42 11 58 7 58 -14 0 -11 5 -20 11 -20 14 0 7 63 -8 68 -7 2 -13 -1 -13 -6z"/> <path d="M1755 400 c-3 -5 1 -10 9 -10 9 0 16 5 16 10 0 6 -4 10 -9 10 -6 0 -13 -4 -16 -10z"/> <path d="M1615 380 c-46 -6 -53 -11 -23 -14 7 0 16 -14 19 -31 4 -22 8 -26 13 -14 4 9 6 22 4 29 -2 8 11 16 32 21 38 8 46 4 52 -24 5 -29 21 -20 22 13 1 28 -1 30 -34 28 -19 0 -57 -4 -85 -8z"/> <path d="M1453 171 c-20 -33 -16 -41 32 -62 25 -11 45 -24 45 -29 0 -15 -48 -12 -53 3 -2 6 -8 9 -12 5 -4 -4 -5 -15 -1 -24 5 -13 14 -15 38 -10 18 3 36 10 40 14 15 15 -17 56 -50 64 -34 9 -38 24 -10 42 13 8 21 4 38 -15 l21 -24 -3 25 c-3 21 -9 25 -38 28 -26 2 -38 -2 -47 -17z"/> <path d="M0 10 c0 -7 507 -10 1500 -10 993 0 1500 3 1500 10 0 7 -507 10 -1500 10 -993 0 -1500 -3 -1500 -10z"/> </g> </svg> 
